<svg width="191" height="102" viewBox="0 0 191 102" fill="none" xmlns="http://www.w3.org/2000/svg">
<path opacity="0.2" d="M190.846 22.0975C190.846 27.3416 186.726 31.4619 181.482 31.4619C176.238 31.4619 172.117 27.3416 172.117 22.0975C172.117 16.8535 176.238 12.7332 181.482 12.7332C186.726 12.7332 190.846 17.0408 190.846 22.0975Z" fill="url(#paint0_radial_102_328)"/>
<path d="M50.381 101.135H33.7124L46.4479 53.7516C48.5081 46.4473 55.9996 40.4541 63.3039 40.4541H79.9725L67.2369 87.838C65.364 95.1422 57.6852 101.135 50.381 101.135ZM108.44 87.6507L131.851 0H115.183C107.878 0 100.2 5.99316 98.3267 13.2974L74.9157 100.948H91.5843C98.8885 101.135 106.38 95.1422 108.44 87.6507ZM149.456 87.6507L169.309 13.2974H152.64C145.336 13.2974 137.657 19.2906 135.784 26.5948L115.932 100.948H132.6C139.905 101.135 147.583 95.1422 149.456 87.6507Z" fill="url(#paint1_linear_102_328)"/>
<path d="M126.982 59.1831L115.744 101.136H132.413C139.717 101.136 147.396 95.1424 149.269 87.8382L162.941 36.8959C152.266 45.8857 139.905 53.1899 126.982 59.1831ZM81.4708 76.039L74.7284 101.136H91.397C98.7013 101.136 106.38 95.1424 108.253 87.8382L113.872 66.6746C103.009 70.6077 91.9589 73.6043 81.4708 76.039ZM38.3946 83.3433L33.7124 101.136H50.5683C57.8725 101.136 65.5513 95.1424 67.4242 87.8382L69.6717 79.5975C57.498 81.4704 46.8225 82.5942 38.3946 83.3433Z" fill="url(#paint2_linear_102_328)"/>
<path d="M152.64 13.2974C145.336 13.2974 137.657 19.2906 135.784 26.5948L115.932 100.948H118.741L138.032 29.2169C140.092 21.9126 147.583 15.9195 154.888 15.9195H168.934L169.683 13.2974H152.64ZM115.183 0C107.878 0 100.2 5.99316 98.3267 13.2974L74.9157 100.948H77.725L100.574 15.9195C102.634 8.61524 110.126 2.62202 117.43 2.62202H131.477L132.226 0H115.183ZM63.3039 40.4541C55.9996 40.4541 48.3208 46.4473 46.4479 53.7516L33.7124 101.135H36.5217L48.5081 56.3736C50.5683 49.0694 58.0598 43.0762 65.364 43.0762H79.4106L80.1598 40.4541H63.3039Z" fill="url(#paint3_linear_102_328)"/>
<path d="M0 83.9028C16.294 84.8393 32.5881 83.9028 48.8821 81.8426C64.9889 79.7825 81.0956 76.4113 96.4532 71.3545C104.132 68.9198 111.811 66.1105 119.302 62.7393C126.794 59.3681 133.911 55.8096 141.028 51.6893C155.074 43.4486 167.81 33.3351 179.047 21.7232L181.669 24.3453L177.174 28.6529L174.927 30.7131L172.492 32.7733L167.81 36.7063L162.94 40.452C161.255 41.763 159.569 42.8868 157.884 44.0105C156.198 45.1343 154.512 46.4453 152.827 47.569C149.268 49.8164 145.897 52.0639 142.339 53.9368C135.222 58.0571 127.73 61.6156 120.239 64.6122C112.747 67.7961 104.881 70.4181 97.015 72.8528C81.2829 77.535 65.1762 80.7189 49.0694 82.5918C41.016 83.5282 32.7754 84.0901 24.722 84.2774C16.2941 84.4647 8.24066 84.4647 0 83.9028Z" fill="url(#paint4_radial_102_328)"/>
<path opacity="0.5" d="M189.16 22.0971C189.16 26.4047 185.789 29.7759 181.481 29.7759C177.174 29.7759 173.803 26.4047 173.803 22.0971C173.803 17.7894 177.174 14.4182 181.481 14.4182C185.789 14.4182 189.16 17.9767 189.16 22.0971Z" fill="url(#paint5_radial_102_328)"/>
<path d="M187.288 22.0988C187.288 25.2827 184.665 27.9047 181.482 27.9047C178.298 27.9047 175.676 25.2827 175.676 22.0988C175.676 18.9149 178.298 16.2929 181.482 16.2929C184.665 16.4802 187.288 19.1022 187.288 22.0988Z" fill="url(#paint6_radial_102_328)"/>
<defs>
<radialGradient id="paint0_radial_102_328" cx="0" cy="0" r="1" gradientUnits="userSpaceOnUse" gradientTransform="translate(179.116 15.7435) scale(21.3385)">
<stop offset="0.1089" stop-color="white"/>
<stop offset="1" stop-color="white"/>
</radialGradient>
<linearGradient id="paint1_linear_102_328" x1="101.349" y1="108" x2="101.349" y2="10.4312" gradientUnits="userSpaceOnUse">
<stop stop-color="white" stop-opacity="0"/>
<stop offset="0.3345" stop-color="white" stop-opacity="0.3345"/>
<stop offset="1" stop-color="white"/>
</linearGradient>
<linearGradient id="paint2_linear_102_328" x1="98.1725" y1="105.496" x2="98.1725" y2="43.5216" gradientUnits="userSpaceOnUse">
<stop stop-color="white" stop-opacity="0"/>
<stop offset="0.3345" stop-color="white" stop-opacity="0.3345"/>
<stop offset="1" stop-color="white"/>
</linearGradient>
<linearGradient id="paint3_linear_102_328" x1="101.536" y1="108" x2="101.536" y2="10.4312" gradientUnits="userSpaceOnUse">
<stop stop-color="white" stop-opacity="0"/>
<stop offset="0.3345" stop-color="white" stop-opacity="0.3345"/>
<stop offset="1" stop-color="white"/>
</linearGradient>
<radialGradient id="paint4_radial_102_328" cx="0" cy="0" r="1" gradientUnits="userSpaceOnUse" gradientTransform="translate(67.8844 31.7957) scale(206.983 71.3982)">
<stop offset="0.1089" stop-color="white"/>
<stop offset="1" stop-color="white"/>
</radialGradient>
<radialGradient id="paint5_radial_102_328" cx="0" cy="0" r="1" gradientUnits="userSpaceOnUse" gradientTransform="translate(179.541 16.8867) scale(17.4976)">
<stop offset="0.1089" stop-color="white"/>
<stop offset="1" stop-color="white"/>
</radialGradient>
<radialGradient id="paint6_radial_102_328" cx="0" cy="0" r="1" gradientUnits="userSpaceOnUse" gradientTransform="translate(180.015 18.1593) scale(13.2299)">
<stop offset="0.1089" stop-color="white"/>
<stop offset="1" stop-color="white"/>
</radialGradient>
</defs>
</svg>
